<svg xmlns="http://www.w3.org/2000/svg" xmlns:xlink="http://www.w3.org/1999/xlink" aria-hidden="true" role="img" class="iconify iconify--logos" width="35.93" height="32" preserveAspectRatio="xMidYMid meet" viewBox="0 0 256 228"><path fill="#00D8FF" d="M210.483 73.824a171.49 171.49 0 0 0-11.622-12.978c-1.403-1.421-2.87-2.8-4.36-4.16c-8.584-7.825-18.233-14.64-28.79-20.048l-.225-.125a135.062 135.062 0 0 0-8.06-4.16a125.056 125.056 0 0 0-38.595-10.556C111.876 21.47 99.9 22.44 88.45 25.213a123.958 123.958 0 0 0-31.135 12.86a134.734 134.734 0 0 0-8.516 5.27l-.204.14c-10.557 5.408-20.206 12.223-28.79 20.048c-1.49 1.36-2.957 2.739-4.36 4.16a171.49 171.49 0 0 0-11.622 12.978C.988 80.04 0 85.554 0 91.21c0 5.656.988 11.17 3.003 16.387a171.49 171.49 0 0 0 11.622 12.977c1.403 1.422 2.87 2.8 4.36 4.16c8.584 7.825 18.233 14.64 28.79 20.048l.224.126a135.08 135.08 0 0 0 8.06 4.16a125.037 125.037 0 0 0 38.595 10.556c5.021.49 10.082.74 15.136.74c4.893 0 9.786-.216 14.64-.648a125.056 125.056 0 0 0 38.595-10.556a135.062 135.062 0 0 0 8.06-4.16l.225-.125c10.557-5.408 20.206-12.223 28.79-20.048c1.49-1.36 2.957-2.738 4.36-4.16a171.49 171.49 0 0 0 11.622-12.977c2.015-5.217 3.003-10.731 3.003-16.387c0-5.656-.988-11.17-3.003-16.386Zm-13.577 24.544a147.865 147.865 0 0 1-9.852 10.97c-1.2 1.218-2.445 2.396-3.716 3.54c-7.237 6.598-15.364 12.34-24.245 16.896l-.19.103a113.818 113.818 0 0 1-6.783 3.502a105.266 105.266 0 0 1-32.49 8.89c-4.225.412-8.478.62-12.716.62c-4.115 0-8.23-.182-12.32-.545a105.266 105.266 0 0 1-32.49-8.89a113.84 113.84 0 0 1-6.783-3.502l-.19-.103c-8.88-4.556-17.008-10.298-24.245-16.896c-1.27-1.144-2.516-2.322-3.716-3.54a147.865 147.865 0 0 1-9.852-10.97a12.794 12.794 0 0 1-1.713-2.793a10.666 10.666 0 0 1-.537-8.14a12.794 12.794 0 0 1 1.713-2.793a147.865 147.865 0 0 1 9.852-10.97c1.2-1.218 2.445-2.396 3.716-3.54c7.237-6.598 15.364-12.34 24.245-16.896l.19-.103a113.84 113.84 0 0 1 6.783-3.502a105.266 105.266 0 0 1 32.49-8.89c4.09-.363 8.205-.545 12.32-.545c4.238 0 8.491.208 12.716.62a105.266 105.266 0 0 1 32.49 8.89a113.818 113.818 0 0 1 6.783 3.502l.19.103c8.88 4.556 17.008 10.298 24.245 16.896c1.27 1.144 2.516 2.322 3.716 3.54a147.865 147.865 0 0 1 9.852 10.97a12.794 12.794 0 0 1 1.713 2.793a10.666 10.666 0 0 1-.537 8.14a12.794 12.794 0 0 1-1.713 2.793Z"></path><path fill="#00D8FF" d="M177.63 107.21c.304 4.122.304 8.26 0 12.382a77.097 77.097 0 0 1-4.28 19.888a75.48 75.48 0 0 1-12.063 24.18a73.803 73.803 0 0 1-19.153 18.797a71.985 71.985 0 0 1-24.755 10.74a70.824 70.824 0 0 1-13.645 1.317c-4.712 0-9.41-.43-14.034-1.28a71.985 71.985 0 0 1-24.755-10.74a73.803 73.803 0 0 1-19.153-18.797a75.48 75.48 0 0 1-12.063-24.18a77.097 77.097 0 0 1-4.28-19.888c-.304-4.122-.304-8.26 0-12.382a77.097 77.097 0 0 1 4.28-19.888a75.48 75.48 0 0 1 12.063-24.18a73.803 73.803 0 0 1 19.153-18.797a71.985 71.985 0 0 1 24.755-10.74a70.824 70.824 0 0 1 13.645-1.317c4.712 0 9.41.43 14.034 1.28a71.985 71.985 0 0 1 24.755 10.74a73.803 73.803 0 0 1 19.153 18.797a75.48 75.48 0 0 1 12.063 24.18a77.097 77.097 0 0 1 4.28 19.888Zm-12.81 1.795a65.33 65.33 0 0 0-3.622-16.84a63.895 63.895 0 0 0-10.207-20.473a62.466 62.466 0 0 0-16.2-15.918a60.923 60.923 0 0 0-20.942-9.092a59.92 59.92 0 0 0-11.546-1.114c-3.985 0-7.962.364-11.84 1.083a60.923 60.923 0 0 0-20.942 9.092a62.466 62.466 0 0 0-16.2 15.918a63.895 63.895 0 0 0-10.207 20.473a65.33 65.33 0 0 0-3.622 16.84c-.257 3.487-.257 6.992 0 10.48a65.33 65.33 0 0 0 3.622 16.84a63.895 63.895 0 0 0 10.207 20.473a62.466 62.466 0 0 0 16.2 15.918a60.923 60.923 0 0 0 20.942 9.092a59.92 59.92 0 0 0 11.546 1.114c3.985 0 7.962-.364 11.84-1.083a60.923 60.923 0 0 0 20.942-9.092a62.466 62.466 0 0 0 16.2-15.918a63.895 63.895 0 0 0 10.207-20.473a65.33 65.33 0 0 0 3.622-16.84c.257-3.488.257-6.993 0-10.48Z"></path><path fill="#00D8FF" d="M128.003 138.667a21.333 21.333 0 1 0 0-42.666a21.333 21.333 0 0 0 0 42.666Z"></path></svg>

